<?xml version="1.0"?>
<svg xmlns="http://www.w3.org/2000/svg" viewBox="0 0 512 512" width="512" height="512"><g id="Fill_out_line" data-name="Fill out line"><rect x="168" y="208" width="320" height="232.00003" rx="32" ry="32" style="fill:#8acce7"/><path d="M168,408H488a0,0,0,0,1,0,0v0a32,32,0,0,1-32,32H200a32,32,0,0,1-32-32v0A0,0,0,0,1,168,408Z" style="fill:#379ec3"/><path d="M200,232H456a8,8,0,0,1,8,8V408a0,0,0,0,1,0,0H192a0,0,0,0,1,0,0V240A8,8,0,0,1,200,232Z" style="fill:#a2c32a"/><path d="M304,440v16a32,32,0,0,1-32,32H384a32,32,0,0,1-32-32V440Z" style="fill:#8acce7"/><rect x="216" y="144" width="224" height="184" rx="16" ry="16" style="fill:#eedc9a"/><path d="M440,160v32H216V160a15.99548,15.99548,0,0,1,16-16H424A15.99564,15.99564,0,0,1,440,160Z" style="fill:#eebe33"/><rect x="328" y="216" width="88" height="88" style="fill:#c4d4e0"/><rect x="240" y="216" width="64" height="32" style="fill:#349966"/><rect x="240" y="272" width="64" height="32" style="fill:#349966"/><path d="M56,440h64a32,32,0,0,1,32,32v16a0,0,0,0,1,0,0H24a0,0,0,0,1,0,0V472A32,32,0,0,1,56,440Z" style="fill:#a6b2bc"/><rect x="24" y="24" width="88" height="72" style="fill:#8acce7"/><path d="M465.99414,201.26074l-3.98828,15.49414A23.98469,23.98469,0,0,1,480,240V400h-8V240H456V400H200V240H184V400h-8V240a23.98469,23.98469,0,0,1,17.99414-23.24512l-3.98828-15.49414A39.97893,39.97893,0,0,0,160,240V408a40.04584,40.04584,0,0,0,40,40h96v8a24.0275,24.0275,0,0,1-24,24,8,8,0,0,0,0,16H384a8,8,0,0,0,0-16,24.0275,24.0275,0,0,1-24-24v-8h96a40.04584,40.04584,0,0,0,40-40V240A39.97893,39.97893,0,0,0,465.99414,201.26074ZM352.01855,480h-48.0371A39.79739,39.79739,0,0,0,312,456v-8h32v8A39.79739,39.79739,0,0,0,352.01855,480ZM456,432H200a24.0384,24.0384,0,0,1-22.62378-16H478.624A24.03919,24.03919,0,0,1,456,432Z"/><circle cx="240" cy="168" r="8"/><circle cx="264" cy="168" r="8"/><circle cx="288" cy="168" r="8"/><rect x="232" y="184" width="192" height="16"/><path d="M416,208H328a8.00039,8.00039,0,0,0-8,8v88a8.00039,8.00039,0,0,0,8,8h88a8.00039,8.00039,0,0,0,8-8V216A8.00039,8.00039,0,0,0,416,208Zm-8,88H336V224h72Z"/><path d="M360,259.31348,364.68555,264l-10.34278,10.34277,11.31446,11.31446L384,267.31348l10.34277,10.34375,11.31446-11.31446-16-16a8.003,8.003,0,0,0-11.31446,0L376,252.68555l-10.34277-10.34278a8.003,8.003,0,0,0-11.31446,0l-16,16,11.31446,11.31446Z"/><path d="M304,208H240a8.00039,8.00039,0,0,0-8,8v32a8.00039,8.00039,0,0,0,8,8h64a8.00039,8.00039,0,0,0,8-8V216A8.00039,8.00039,0,0,0,304,208Zm-8,32H248V224h48Z"/><path d="M304,264H240a8.00039,8.00039,0,0,0-8,8v32a8.00039,8.00039,0,0,0,8,8h64a8.00039,8.00039,0,0,0,8-8V272A8.00039,8.00039,0,0,0,304,264Zm-8,32H248V280h48Z"/><path d="M120,432V80H320v56H232a24.0275,24.0275,0,0,0-24,24V312a24.0275,24.0275,0,0,0,24,24H424a24.0275,24.0275,0,0,0,24-24V160a24.0275,24.0275,0,0,0-24-24H336V80h24a7.9979,7.9979,0,0,0,8-8V24a7.9979,7.9979,0,0,0-8-8H24a7.9979,7.9979,0,0,0-8,8V96a7.9979,7.9979,0,0,0,8,8H56V432a40.04018,40.04018,0,0,0-40,40v16a7.9979,7.9979,0,0,0,8,8H152a7.9979,7.9979,0,0,0,8-8V472A40.04018,40.04018,0,0,0,120,432ZM432,160V312a8.00917,8.00917,0,0,1-8,8H232a8.00917,8.00917,0,0,1-8-8V160a8.00917,8.00917,0,0,1,8-8H424A8.00917,8.00917,0,0,1,432,160ZM179.32007,64,208,35.31006,236.67993,64Zm95.99975,0L304,35.31006,332.68018,64ZM352,60.67969,323.32031,32H352ZM284.68018,32,256,60.68994,227.32007,32Zm-96.00025,0L160,60.68994,131.32007,32ZM120,43.32007,140.67993,64H120ZM72,363.31982,100.68994,392,72,420.68018Zm0-96L100.68994,296,72,324.68018Zm0-95.99975L100.68994,200,72,228.67993Zm32,9.35986L75.31006,152,104,123.32007Zm0,96.00025L75.31006,248,104,219.32007Zm0,96L75.31006,344,104,315.31982Zm0,38.63964V432H83.32007ZM32,88V32h72V88Zm68.67993,16L72,132.67993V104ZM144,480H32v-8a24.03189,24.03189,0,0,1,24-24h64a24.03189,24.03189,0,0,1,24,24Z"/></g></svg>
